<svg width="24" height="24" viewBox="0 0 24 24" xmlns="http://www.w3.org/2000/svg">
<path fill-rule="evenodd" clip-rule="evenodd" d="M5.46967 4.21967C5.76256 3.92678 6.23744 3.92678 6.53033 4.21967L12 9.68934L17.4697 4.21967C17.7626 3.92678 18.2374 3.92678 18.5303 4.21967C18.8232 4.51256 18.8232 4.98744 18.5303 5.28033L13.0607 10.75L18.5303 16.2197C18.8232 16.5126 18.8232 16.9874 18.5303 17.2803C18.2374 17.5732 17.7626 17.5732 17.4697 17.2803L12 11.8107L6.53033 17.2803C6.23744 17.5732 5.76256 17.5732 5.46967 17.2803C5.17678 16.9874 5.17678 16.5126 5.46967 16.2197L10.9393 10.75L5.46967 5.28033C5.17678 4.98744 5.17678 4.51256 5.46967 4.21967Z" fill="currentColor"/>
</svg>
